<svg xmlns="http://www.w3.org/2000/svg" xmlns:xlink="http://www.w3.org/1999/xlink" width="388" height="458" viewBox="0 0 388 458"><defs><clipPath id="a"><rect width="388" height="458" fill="none"/></clipPath></defs><g clip-path="url(#a)"><g transform="translate(-1714 -201)"><g transform="translate(1719 206)" fill="#fff" stroke="#fc3a52" stroke-width="0.5"><circle cx="3" cy="3" r="3" stroke="none"/><circle cx="3" cy="3" r="2.75" fill="none"/></g></g><g transform="translate(-1678 -201)"><g transform="translate(1719 206)" fill="#fff" stroke="#fc3a52" stroke-width="0.5"><circle cx="3" cy="3" r="3" stroke="none"/><circle cx="3" cy="3" r="2.75" fill="none"/></g></g><g transform="translate(-1642 -201)"><g transform="translate(1719 206)" fill="#fff" stroke="#fc3a52" stroke-width="0.5"><circle cx="3" cy="3" r="3" stroke="none"/><circle cx="3" cy="3" r="2.75" fill="none"/></g></g><g transform="translate(-1606 -201)"><g transform="translate(1719 206)" fill="#fff" stroke="#fc3a52" stroke-width="0.5"><circle cx="3" cy="3" r="3" stroke="none"/><circle cx="3" cy="3" r="2.75" fill="none"/></g></g><g transform="translate(-1570 -201)"><g transform="translate(1719 206)" fill="#fff" stroke="#fc3a52" stroke-width="0.5"><circle cx="3" cy="3" r="3" stroke="none"/><circle cx="3" cy="3" r="2.75" fill="none"/></g></g><g transform="translate(-1534 -201)"><g transform="translate(1719 206)" fill="#fff" stroke="#fc3a52" stroke-width="0.5"><circle cx="3" cy="3" r="3" stroke="none"/><circle cx="3" cy="3" r="2.75" fill="none"/></g></g><g transform="translate(-1498 -201)"><g transform="translate(1719 206)" fill="#fff" stroke="#fc3a52" stroke-width="0.5"><circle cx="3" cy="3" r="3" stroke="none"/><circle cx="3" cy="3" r="2.75" fill="none"/></g></g><g transform="translate(-1462 -201)"><g transform="translate(1719 206)" fill="#fff" stroke="#fc3a52" stroke-width="0.5"><circle cx="3" cy="3" r="3" stroke="none"/><circle cx="3" cy="3" r="2.75" fill="none"/></g></g><g transform="translate(-1426 -201)"><g transform="translate(1719 206)" fill="#fff" stroke="#fc3a52" stroke-width="0.5"><circle cx="3" cy="3" r="3" stroke="none"/><circle cx="3" cy="3" r="2.75" fill="none"/></g></g><g transform="translate(-1390 -201)"><g transform="translate(1719 206)" fill="#fff" stroke="#fc3a52" stroke-width="0.5"><circle cx="3" cy="3" r="3" stroke="none"/><circle cx="3" cy="3" r="2.75" fill="none"/></g></g><g transform="translate(-1354 -201)"><g transform="translate(1719 206)" fill="#fff" stroke="#fc3a52" stroke-width="0.5"><circle cx="3" cy="3" r="3" stroke="none"/><circle cx="3" cy="3" r="2.75" fill="none"/></g></g><g transform="translate(-1714 -165)"><g transform="translate(1719 206)" fill="#fff" stroke="#fc3a52" stroke-width="0.5"><circle cx="3" cy="3" r="3" stroke="none"/><circle cx="3" cy="3" r="2.75" fill="none"/></g></g><g transform="translate(-1678 -165)"><g transform="translate(1719 206)" fill="#fff" stroke="#fc3a52" stroke-width="0.5"><circle cx="3" cy="3" r="3" stroke="none"/><circle cx="3" cy="3" r="2.75" fill="none"/></g></g><g transform="translate(-1642 -165)"><g transform="translate(1719 206)" fill="#fff" stroke="#fc3a52" stroke-width="0.5"><circle cx="3" cy="3" r="3" stroke="none"/><circle cx="3" cy="3" r="2.75" fill="none"/></g></g><g transform="translate(-1606 -165)"><g transform="translate(1719 206)" fill="#fff" stroke="#fc3a52" stroke-width="0.5"><circle cx="3" cy="3" r="3" stroke="none"/><circle cx="3" cy="3" r="2.75" fill="none"/></g></g><g transform="translate(-1570 -165)"><g transform="translate(1719 206)" fill="#fff" stroke="#fc3a52" stroke-width="0.5"><circle cx="3" cy="3" r="3" stroke="none"/><circle cx="3" cy="3" r="2.75" fill="none"/></g></g><g transform="translate(-1534 -165)"><g transform="translate(1719 206)" fill="#fff" stroke="#fc3a52" stroke-width="0.5"><circle cx="3" cy="3" r="3" stroke="none"/><circle cx="3" cy="3" r="2.75" fill="none"/></g></g><g transform="translate(-1498 -165)"><g transform="translate(1719 206)" fill="#fff" stroke="#fc3a52" stroke-width="0.5"><circle cx="3" cy="3" r="3" stroke="none"/><circle cx="3" cy="3" r="2.75" fill="none"/></g></g><g transform="translate(-1462 -165)"><g transform="translate(1719 206)" fill="#fff" stroke="#fc3a52" stroke-width="0.5"><circle cx="3" cy="3" r="3" stroke="none"/><circle cx="3" cy="3" r="2.75" fill="none"/></g></g><g transform="translate(-1426 -165)"><g transform="translate(1719 206)" fill="#fff" stroke="#fc3a52" stroke-width="0.5"><circle cx="3" cy="3" r="3" stroke="none"/><circle cx="3" cy="3" r="2.75" fill="none"/></g></g><g transform="translate(-1390 -165)"><g transform="translate(1719 206)" fill="#fff" stroke="#fc3a52" stroke-width="0.5"><circle cx="3" cy="3" r="3" stroke="none"/><circle cx="3" cy="3" r="2.75" fill="none"/></g></g><g transform="translate(-1354 -165)"><g transform="translate(1719 206)" fill="#fff" stroke="#fc3a52" stroke-width="0.5"><circle cx="3" cy="3" r="3" stroke="none"/><circle cx="3" cy="3" r="2.75" fill="none"/></g></g><g transform="translate(-1714 -129)"><g transform="translate(1719 206)" fill="#fff" stroke="#fc3a52" stroke-width="0.5"><circle cx="3" cy="3" r="3" stroke="none"/><circle cx="3" cy="3" r="2.75" fill="none"/></g></g><g transform="translate(-1678 -129)"><g transform="translate(1719 206)" fill="#fff" stroke="#fc3a52" stroke-width="0.5"><circle cx="3" cy="3" r="3" stroke="none"/><circle cx="3" cy="3" r="2.75" fill="none"/></g></g><g transform="translate(-1642 -129)"><g transform="translate(1719 206)" fill="#fff" stroke="#fc3a52" stroke-width="0.5"><circle cx="3" cy="3" r="3" stroke="none"/><circle cx="3" cy="3" r="2.75" fill="none"/></g></g><g transform="translate(-1606 -129)"><g transform="translate(1719 206)" fill="#fff" stroke="#fc3a52" stroke-width="0.5"><circle cx="3" cy="3" r="3" stroke="none"/><circle cx="3" cy="3" r="2.75" fill="none"/></g></g><g transform="translate(-1570 -129)"><g transform="translate(1719 206)" fill="#fff" stroke="#fc3a52" stroke-width="0.5"><circle cx="3" cy="3" r="3" stroke="none"/><circle cx="3" cy="3" r="2.75" fill="none"/></g></g><g transform="translate(-1534 -129)"><g transform="translate(1719 206)" fill="#fff" stroke="#fc3a52" stroke-width="0.5"><circle cx="3" cy="3" r="3" stroke="none"/><circle cx="3" cy="3" r="2.75" fill="none"/></g></g><g transform="translate(-1498 -129)"><g transform="translate(1719 206)" fill="#fff" stroke="#fc3a52" stroke-width="0.5"><circle cx="3" cy="3" r="3" stroke="none"/><circle cx="3" cy="3" r="2.75" fill="none"/></g></g><g transform="translate(-1462 -129)"><g transform="translate(1719 206)" fill="#fff" stroke="#fc3a52" stroke-width="0.5"><circle cx="3" cy="3" r="3" stroke="none"/><circle cx="3" cy="3" r="2.75" fill="none"/></g></g><g transform="translate(-1426 -129)"><g transform="translate(1719 206)" fill="#fff" stroke="#fc3a52" stroke-width="0.5"><circle cx="3" cy="3" r="3" stroke="none"/><circle cx="3" cy="3" r="2.75" fill="none"/></g></g><g transform="translate(-1390 -129)"><g transform="translate(1719 206)" fill="#fff" stroke="#fc3a52" stroke-width="0.5"><circle cx="3" cy="3" r="3" stroke="none"/><circle cx="3" cy="3" r="2.75" fill="none"/></g></g><g transform="translate(-1354 -129)"><g transform="translate(1719 206)" fill="#fff" stroke="#fc3a52" stroke-width="0.5"><circle cx="3" cy="3" r="3" stroke="none"/><circle cx="3" cy="3" r="2.75" fill="none"/></g></g><g transform="translate(-1714 -93)"><g transform="translate(1719 206)" fill="#fff" stroke="#fc3a52" stroke-width="0.5"><circle cx="3" cy="3" r="3" stroke="none"/><circle cx="3" cy="3" r="2.75" fill="none"/></g></g><g transform="translate(-1678 -93)"><g transform="translate(1719 206)" fill="#fff" stroke="#fc3a52" stroke-width="0.5"><circle cx="3" cy="3" r="3" stroke="none"/><circle cx="3" cy="3" r="2.75" fill="none"/></g></g><g transform="translate(-1642 -93)"><g transform="translate(1719 206)" fill="#fff" stroke="#fc3a52" stroke-width="0.5"><circle cx="3" cy="3" r="3" stroke="none"/><circle cx="3" cy="3" r="2.75" fill="none"/></g></g><g transform="translate(-1606 -93)"><g transform="translate(1719 206)" fill="#fff" stroke="#fc3a52" stroke-width="0.5"><circle cx="3" cy="3" r="3" stroke="none"/><circle cx="3" cy="3" r="2.75" fill="none"/></g></g><g transform="translate(-1570 -93)"><g transform="translate(1719 206)" fill="#fff" stroke="#fc3a52" stroke-width="0.5"><circle cx="3" cy="3" r="3" stroke="none"/><circle cx="3" cy="3" r="2.75" fill="none"/></g></g><g transform="translate(-1534 -93)"><g transform="translate(1719 206)" fill="#fff" stroke="#fc3a52" stroke-width="0.5"><circle cx="3" cy="3" r="3" stroke="none"/><circle cx="3" cy="3" r="2.75" fill="none"/></g></g><g transform="translate(-1498 -93)"><g transform="translate(1719 206)" fill="#fff" stroke="#fc3a52" stroke-width="0.5"><circle cx="3" cy="3" r="3" stroke="none"/><circle cx="3" cy="3" r="2.75" fill="none"/></g></g><g transform="translate(-1462 -93)"><g transform="translate(1719 206)" fill="#fff" stroke="#fc3a52" stroke-width="0.5"><circle cx="3" cy="3" r="3" stroke="none"/><circle cx="3" cy="3" r="2.75" fill="none"/></g></g><g transform="translate(-1426 -93)"><g transform="translate(1719 206)" fill="#fff" stroke="#fc3a52" stroke-width="0.5"><circle cx="3" cy="3" r="3" stroke="none"/><circle cx="3" cy="3" r="2.75" fill="none"/></g></g><g transform="translate(-1390 -93)"><g transform="translate(1719 206)" fill="#fff" stroke="#fc3a52" stroke-width="0.5"><circle cx="3" cy="3" r="3" stroke="none"/><circle cx="3" cy="3" r="2.75" fill="none"/></g></g><g transform="translate(-1354 -93)"><g transform="translate(1719 206)" fill="#fff" stroke="#fc3a52" stroke-width="0.5"><circle cx="3" cy="3" r="3" stroke="none"/><circle cx="3" cy="3" r="2.75" fill="none"/></g></g><g transform="translate(-1714 -57)"><g transform="translate(1719 206)" fill="#fff" stroke="#fc3a52" stroke-width="0.5"><circle cx="3" cy="3" r="3" stroke="none"/><circle cx="3" cy="3" r="2.75" fill="none"/></g></g><g transform="translate(-1678 -57)"><g transform="translate(1719 206)" fill="#fff" stroke="#fc3a52" stroke-width="0.5"><circle cx="3" cy="3" r="3" stroke="none"/><circle cx="3" cy="3" r="2.75" fill="none"/></g></g><g transform="translate(-1642 -57)"><g transform="translate(1719 206)" fill="#fff" stroke="#fc3a52" stroke-width="0.5"><circle cx="3" cy="3" r="3" stroke="none"/><circle cx="3" cy="3" r="2.75" fill="none"/></g></g><g transform="translate(-1606 -57)"><g transform="translate(1719 206)" fill="#fff" stroke="#fc3a52" stroke-width="0.5"><circle cx="3" cy="3" r="3" stroke="none"/><circle cx="3" cy="3" r="2.75" fill="none"/></g></g><g transform="translate(-1570 -57)"><g transform="translate(1719 206)" fill="#fff" stroke="#fc3a52" stroke-width="0.5"><circle cx="3" cy="3" r="3" stroke="none"/><circle cx="3" cy="3" r="2.75" fill="none"/></g></g><g transform="translate(-1534 -57)"><g transform="translate(1719 206)" fill="#fff" stroke="#fc3a52" stroke-width="0.5"><circle cx="3" cy="3" r="3" stroke="none"/><circle cx="3" cy="3" r="2.75" fill="none"/></g></g><g transform="translate(-1498 -57)"><g transform="translate(1719 206)" fill="#fff" stroke="#fc3a52" stroke-width="0.5"><circle cx="3" cy="3" r="3" stroke="none"/><circle cx="3" cy="3" r="2.75" fill="none"/></g></g><g transform="translate(-1462 -57)"><g transform="translate(1719 206)" fill="#fff" stroke="#fc3a52" stroke-width="0.5"><circle cx="3" cy="3" r="3" stroke="none"/><circle cx="3" cy="3" r="2.75" fill="none"/></g></g><g transform="translate(-1426 -57)"><g transform="translate(1719 206)" fill="#fff" stroke="#fc3a52" stroke-width="0.5"><circle cx="3" cy="3" r="3" stroke="none"/><circle cx="3" cy="3" r="2.75" fill="none"/></g></g><g transform="translate(-1390 -57)"><g transform="translate(1719 206)" fill="#fff" stroke="#fc3a52" stroke-width="0.5"><circle cx="3" cy="3" r="3" stroke="none"/><circle cx="3" cy="3" r="2.75" fill="none"/></g></g><g transform="translate(-1354 -57)"><g transform="translate(1719 206)" fill="#fff" stroke="#fc3a52" stroke-width="0.5"><circle cx="3" cy="3" r="3" stroke="none"/><circle cx="3" cy="3" r="2.75" fill="none"/></g></g><g transform="translate(-1714 -21)"><g transform="translate(1719 206)" fill="#fff" stroke="#fc3a52" stroke-width="0.5"><circle cx="3" cy="3" r="3" stroke="none"/><circle cx="3" cy="3" r="2.75" fill="none"/></g></g><g transform="translate(-1678 -21)"><g transform="translate(1719 206)" fill="#fff" stroke="#fc3a52" stroke-width="0.5"><circle cx="3" cy="3" r="3" stroke="none"/><circle cx="3" cy="3" r="2.75" fill="none"/></g></g><g transform="translate(-1642 -21)"><g transform="translate(1719 206)" fill="#fff" stroke="#fc3a52" stroke-width="0.5"><circle cx="3" cy="3" r="3" stroke="none"/><circle cx="3" cy="3" r="2.75" fill="none"/></g></g><g transform="translate(-1606 -21)"><g transform="translate(1719 206)" fill="#fff" stroke="#fc3a52" stroke-width="0.5"><circle cx="3" cy="3" r="3" stroke="none"/><circle cx="3" cy="3" r="2.75" fill="none"/></g></g><g transform="translate(-1570 -21)"><g transform="translate(1719 206)" fill="#fff" stroke="#fc3a52" stroke-width="0.5"><circle cx="3" cy="3" r="3" stroke="none"/><circle cx="3" cy="3" r="2.75" fill="none"/></g></g><g transform="translate(-1534 -21)"><g transform="translate(1719 206)" fill="#fff" stroke="#fc3a52" stroke-width="0.5"><circle cx="3" cy="3" r="3" stroke="none"/><circle cx="3" cy="3" r="2.75" fill="none"/></g></g><g transform="translate(-1498 -21)"><g transform="translate(1719 206)" fill="#fff" stroke="#fc3a52" stroke-width="0.5"><circle cx="3" cy="3" r="3" stroke="none"/><circle cx="3" cy="3" r="2.75" fill="none"/></g></g><g transform="translate(-1462 -21)"><g transform="translate(1719 206)" fill="#fff" stroke="#fc3a52" stroke-width="0.5"><circle cx="3" cy="3" r="3" stroke="none"/><circle cx="3" cy="3" r="2.75" fill="none"/></g></g><g transform="translate(-1426 -21)"><g transform="translate(1719 206)" fill="#fff" stroke="#fc3a52" stroke-width="0.5"><circle cx="3" cy="3" r="3" stroke="none"/><circle cx="3" cy="3" r="2.75" fill="none"/></g></g><g transform="translate(-1390 -21)"><g transform="translate(1719 206)" fill="#fff" stroke="#fc3a52" stroke-width="0.5"><circle cx="3" cy="3" r="3" stroke="none"/><circle cx="3" cy="3" r="2.75" fill="none"/></g></g><g transform="translate(-1354 -21)"><g transform="translate(1719 206)" fill="#fff" stroke="#fc3a52" stroke-width="0.5"><circle cx="3" cy="3" r="3" stroke="none"/><circle cx="3" cy="3" r="2.75" fill="none"/></g></g><g transform="translate(-1714 15)"><g transform="translate(1719 206)" fill="#fff" stroke="#fc3a52" stroke-width="0.5"><circle cx="3" cy="3" r="3" stroke="none"/><circle cx="3" cy="3" r="2.75" fill="none"/></g></g><g transform="translate(-1678 15)"><g transform="translate(1719 206)" fill="#fff" stroke="#fc3a52" stroke-width="0.5"><circle cx="3" cy="3" r="3" stroke="none"/><circle cx="3" cy="3" r="2.75" fill="none"/></g></g><g transform="translate(-1642 15)"><g transform="translate(1719 206)" fill="#fff" stroke="#fc3a52" stroke-width="0.5"><circle cx="3" cy="3" r="3" stroke="none"/><circle cx="3" cy="3" r="2.75" fill="none"/></g></g><g transform="translate(-1606 15)"><g transform="translate(1719 206)" fill="#fff" stroke="#fc3a52" stroke-width="0.5"><circle cx="3" cy="3" r="3" stroke="none"/><circle cx="3" cy="3" r="2.75" fill="none"/></g></g><g transform="translate(-1570 15)"><g transform="translate(1719 206)" fill="#fff" stroke="#fc3a52" stroke-width="0.5"><circle cx="3" cy="3" r="3" stroke="none"/><circle cx="3" cy="3" r="2.75" fill="none"/></g></g><g transform="translate(-1534 15)"><g transform="translate(1719 206)" fill="#fff" stroke="#fc3a52" stroke-width="0.5"><circle cx="3" cy="3" r="3" stroke="none"/><circle cx="3" cy="3" r="2.75" fill="none"/></g></g><g transform="translate(-1498 15)"><g transform="translate(1719 206)" fill="#fff" stroke="#fc3a52" stroke-width="0.5"><circle cx="3" cy="3" r="3" stroke="none"/><circle cx="3" cy="3" r="2.75" fill="none"/></g></g><g transform="translate(-1462 15)"><g transform="translate(1719 206)" fill="#fff" stroke="#fc3a52" stroke-width="0.5"><circle cx="3" cy="3" r="3" stroke="none"/><circle cx="3" cy="3" r="2.75" fill="none"/></g></g><g transform="translate(-1426 15)"><g transform="translate(1719 206)" fill="#fff" stroke="#fc3a52" stroke-width="0.5"><circle cx="3" cy="3" r="3" stroke="none"/><circle cx="3" cy="3" r="2.75" fill="none"/></g></g><g transform="translate(-1390 15)"><g transform="translate(1719 206)" fill="#fff" stroke="#fc3a52" stroke-width="0.5"><circle cx="3" cy="3" r="3" stroke="none"/><circle cx="3" cy="3" r="2.75" fill="none"/></g></g><g transform="translate(-1354 15)"><g transform="translate(1719 206)" fill="#fff" stroke="#fc3a52" stroke-width="0.5"><circle cx="3" cy="3" r="3" stroke="none"/><circle cx="3" cy="3" r="2.75" fill="none"/></g></g><g transform="translate(-1714 51)"><g transform="translate(1719 206)" fill="#fff" stroke="#fc3a52" stroke-width="0.5"><circle cx="3" cy="3" r="3" stroke="none"/><circle cx="3" cy="3" r="2.75" fill="none"/></g></g><g transform="translate(-1678 51)"><g transform="translate(1719 206)" fill="#fff" stroke="#fc3a52" stroke-width="0.5"><circle cx="3" cy="3" r="3" stroke="none"/><circle cx="3" cy="3" r="2.75" fill="none"/></g></g><g transform="translate(-1642 51)"><g transform="translate(1719 206)" fill="#fff" stroke="#fc3a52" stroke-width="0.5"><circle cx="3" cy="3" r="3" stroke="none"/><circle cx="3" cy="3" r="2.75" fill="none"/></g></g><g transform="translate(-1606 51)"><g transform="translate(1719 206)" fill="#fff" stroke="#fc3a52" stroke-width="0.5"><circle cx="3" cy="3" r="3" stroke="none"/><circle cx="3" cy="3" r="2.75" fill="none"/></g></g><g transform="translate(-1570 51)"><g transform="translate(1719 206)" fill="#fff" stroke="#fc3a52" stroke-width="0.5"><circle cx="3" cy="3" r="3" stroke="none"/><circle cx="3" cy="3" r="2.75" fill="none"/></g></g><g transform="translate(-1534 51)"><g transform="translate(1719 206)" fill="#fff" stroke="#fc3a52" stroke-width="0.5"><circle cx="3" cy="3" r="3" stroke="none"/><circle cx="3" cy="3" r="2.75" fill="none"/></g></g><g transform="translate(-1498 51)"><g transform="translate(1719 206)" fill="#fff" stroke="#fc3a52" stroke-width="0.5"><circle cx="3" cy="3" r="3" stroke="none"/><circle cx="3" cy="3" r="2.75" fill="none"/></g></g><g transform="translate(-1462 51)"><g transform="translate(1719 206)" fill="#fff" stroke="#fc3a52" stroke-width="0.5"><circle cx="3" cy="3" r="3" stroke="none"/><circle cx="3" cy="3" r="2.75" fill="none"/></g></g><g transform="translate(-1426 51)"><g transform="translate(1719 206)" fill="#fff" stroke="#fc3a52" stroke-width="0.5"><circle cx="3" cy="3" r="3" stroke="none"/><circle cx="3" cy="3" r="2.75" fill="none"/></g></g><g transform="translate(-1390 51)"><g transform="translate(1719 206)" fill="#fff" stroke="#fc3a52" stroke-width="0.5"><circle cx="3" cy="3" r="3" stroke="none"/><circle cx="3" cy="3" r="2.75" fill="none"/></g></g><g transform="translate(-1354 51)"><g transform="translate(1719 206)" fill="#fff" stroke="#fc3a52" stroke-width="0.5"><circle cx="3" cy="3" r="3" stroke="none"/><circle cx="3" cy="3" r="2.75" fill="none"/></g></g><g transform="translate(-1714 87)"><g transform="translate(1719 206)" fill="#fff" stroke="#fc3a52" stroke-width="0.5"><circle cx="3" cy="3" r="3" stroke="none"/><circle cx="3" cy="3" r="2.75" fill="none"/></g></g><g transform="translate(-1678 87)"><g transform="translate(1719 206)" fill="#fff" stroke="#fc3a52" stroke-width="0.5"><circle cx="3" cy="3" r="3" stroke="none"/><circle cx="3" cy="3" r="2.75" fill="none"/></g></g><g transform="translate(-1642 87)"><g transform="translate(1719 206)" fill="#fff" stroke="#fc3a52" stroke-width="0.5"><circle cx="3" cy="3" r="3" stroke="none"/><circle cx="3" cy="3" r="2.75" fill="none"/></g></g><g transform="translate(-1606 87)"><g transform="translate(1719 206)" fill="#fff" stroke="#fc3a52" stroke-width="0.5"><circle cx="3" cy="3" r="3" stroke="none"/><circle cx="3" cy="3" r="2.75" fill="none"/></g></g><g transform="translate(-1570 87)"><g transform="translate(1719 206)" fill="#fff" stroke="#fc3a52" stroke-width="0.5"><circle cx="3" cy="3" r="3" stroke="none"/><circle cx="3" cy="3" r="2.75" fill="none"/></g></g><g transform="translate(-1534 87)"><g transform="translate(1719 206)" fill="#fff" stroke="#fc3a52" stroke-width="0.5"><circle cx="3" cy="3" r="3" stroke="none"/><circle cx="3" cy="3" r="2.75" fill="none"/></g></g><g transform="translate(-1498 87)"><g transform="translate(1719 206)" fill="#fff" stroke="#fc3a52" stroke-width="0.5"><circle cx="3" cy="3" r="3" stroke="none"/><circle cx="3" cy="3" r="2.75" fill="none"/></g></g><g transform="translate(-1462 87)"><g transform="translate(1719 206)" fill="#fff" stroke="#fc3a52" stroke-width="0.5"><circle cx="3" cy="3" r="3" stroke="none"/><circle cx="3" cy="3" r="2.75" fill="none"/></g></g><g transform="translate(-1426 87)"><g transform="translate(1719 206)" fill="#fff" stroke="#fc3a52" stroke-width="0.5"><circle cx="3" cy="3" r="3" stroke="none"/><circle cx="3" cy="3" r="2.75" fill="none"/></g></g><g transform="translate(-1390 87)"><g transform="translate(1719 206)" fill="#fff" stroke="#fc3a52" stroke-width="0.5"><circle cx="3" cy="3" r="3" stroke="none"/><circle cx="3" cy="3" r="2.75" fill="none"/></g></g><g transform="translate(-1354 87)"><g transform="translate(1719 206)" fill="#fff" stroke="#fc3a52" stroke-width="0.5"><circle cx="3" cy="3" r="3" stroke="none"/><circle cx="3" cy="3" r="2.75" fill="none"/></g></g><g transform="translate(-1714 123)"><g transform="translate(1719 206)" fill="#fff" stroke="#fc3a52" stroke-width="0.5"><circle cx="3" cy="3" r="3" stroke="none"/><circle cx="3" cy="3" r="2.75" fill="none"/></g></g><g transform="translate(-1678 123)"><g transform="translate(1719 206)" fill="#fff" stroke="#fc3a52" stroke-width="0.5"><circle cx="3" cy="3" r="3" stroke="none"/><circle cx="3" cy="3" r="2.75" fill="none"/></g></g><g transform="translate(-1642 123)"><g transform="translate(1719 206)" fill="#fff" stroke="#fc3a52" stroke-width="0.5"><circle cx="3" cy="3" r="3" stroke="none"/><circle cx="3" cy="3" r="2.75" fill="none"/></g></g><g transform="translate(-1606 123)"><g transform="translate(1719 206)" fill="#fff" stroke="#fc3a52" stroke-width="0.5"><circle cx="3" cy="3" r="3" stroke="none"/><circle cx="3" cy="3" r="2.75" fill="none"/></g></g><g transform="translate(-1570 123)"><g transform="translate(1719 206)" fill="#fff" stroke="#fc3a52" stroke-width="0.5"><circle cx="3" cy="3" r="3" stroke="none"/><circle cx="3" cy="3" r="2.75" fill="none"/></g></g><g transform="translate(-1534 123)"><g transform="translate(1719 206)" fill="#fff" stroke="#fc3a52" stroke-width="0.5"><circle cx="3" cy="3" r="3" stroke="none"/><circle cx="3" cy="3" r="2.75" fill="none"/></g></g><g transform="translate(-1498 123)"><g transform="translate(1719 206)" fill="#fff" stroke="#fc3a52" stroke-width="0.5"><circle cx="3" cy="3" r="3" stroke="none"/><circle cx="3" cy="3" r="2.75" fill="none"/></g></g><g transform="translate(-1462 123)"><g transform="translate(1719 206)" fill="#fff" stroke="#fc3a52" stroke-width="0.5"><circle cx="3" cy="3" r="3" stroke="none"/><circle cx="3" cy="3" r="2.75" fill="none"/></g></g><g transform="translate(-1426 123)"><g transform="translate(1719 206)" fill="#fff" stroke="#fc3a52" stroke-width="0.5"><circle cx="3" cy="3" r="3" stroke="none"/><circle cx="3" cy="3" r="2.75" fill="none"/></g></g><g transform="translate(-1390 123)"><g transform="translate(1719 206)" fill="#fff" stroke="#fc3a52" stroke-width="0.5"><circle cx="3" cy="3" r="3" stroke="none"/><circle cx="3" cy="3" r="2.75" fill="none"/></g></g><g transform="translate(-1354 123)"><g transform="translate(1719 206)" fill="#fff" stroke="#fc3a52" stroke-width="0.5"><circle cx="3" cy="3" r="3" stroke="none"/><circle cx="3" cy="3" r="2.75" fill="none"/></g></g><g transform="translate(-1714 159)"><g transform="translate(1719 206)" fill="#fff" stroke="#fc3a52" stroke-width="0.5"><circle cx="3" cy="3" r="3" stroke="none"/><circle cx="3" cy="3" r="2.75" fill="none"/></g></g><g transform="translate(-1678 159)"><g transform="translate(1719 206)" fill="#fff" stroke="#fc3a52" stroke-width="0.5"><circle cx="3" cy="3" r="3" stroke="none"/><circle cx="3" cy="3" r="2.75" fill="none"/></g></g><g transform="translate(-1642 159)"><g transform="translate(1719 206)" fill="#fff" stroke="#fc3a52" stroke-width="0.5"><circle cx="3" cy="3" r="3" stroke="none"/><circle cx="3" cy="3" r="2.75" fill="none"/></g></g><g transform="translate(-1606 159)"><g transform="translate(1719 206)" fill="#fff" stroke="#fc3a52" stroke-width="0.5"><circle cx="3" cy="3" r="3" stroke="none"/><circle cx="3" cy="3" r="2.75" fill="none"/></g></g><g transform="translate(-1570 159)"><g transform="translate(1719 206)" fill="#fff" stroke="#fc3a52" stroke-width="0.5"><circle cx="3" cy="3" r="3" stroke="none"/><circle cx="3" cy="3" r="2.75" fill="none"/></g></g><g transform="translate(-1534 159)"><g transform="translate(1719 206)" fill="#fff" stroke="#fc3a52" stroke-width="0.5"><circle cx="3" cy="3" r="3" stroke="none"/><circle cx="3" cy="3" r="2.75" fill="none"/></g></g><g transform="translate(-1498 159)"><g transform="translate(1719 206)" fill="#fff" stroke="#fc3a52" stroke-width="0.5"><circle cx="3" cy="3" r="3" stroke="none"/><circle cx="3" cy="3" r="2.75" fill="none"/></g></g><g transform="translate(-1462 159)"><g transform="translate(1719 206)" fill="#fff" stroke="#fc3a52" stroke-width="0.5"><circle cx="3" cy="3" r="3" stroke="none"/><circle cx="3" cy="3" r="2.75" fill="none"/></g></g><g transform="translate(-1426 159)"><g transform="translate(1719 206)" fill="#fff" stroke="#fc3a52" stroke-width="0.5"><circle cx="3" cy="3" r="3" stroke="none"/><circle cx="3" cy="3" r="2.75" fill="none"/></g></g><g transform="translate(-1390 159)"><g transform="translate(1719 206)" fill="#fff" stroke="#fc3a52" stroke-width="0.5"><circle cx="3" cy="3" r="3" stroke="none"/><circle cx="3" cy="3" r="2.75" fill="none"/></g></g><g transform="translate(-1354 159)"><g transform="translate(1719 206)" fill="#fff" stroke="#fc3a52" stroke-width="0.5"><circle cx="3" cy="3" r="3" stroke="none"/><circle cx="3" cy="3" r="2.75" fill="none"/></g></g><g transform="translate(-1714 195)"><g transform="translate(1719 206)" fill="#fff" stroke="#fc3a52" stroke-width="0.5"><circle cx="3" cy="3" r="3" stroke="none"/><circle cx="3" cy="3" r="2.75" fill="none"/></g></g><g transform="translate(-1678 195)"><g transform="translate(1719 206)" fill="#fff" stroke="#fc3a52" stroke-width="0.5"><circle cx="3" cy="3" r="3" stroke="none"/><circle cx="3" cy="3" r="2.75" fill="none"/></g></g><g transform="translate(-1642 195)"><g transform="translate(1719 206)" fill="#fff" stroke="#fc3a52" stroke-width="0.5"><circle cx="3" cy="3" r="3" stroke="none"/><circle cx="3" cy="3" r="2.75" fill="none"/></g></g><g transform="translate(-1606 195)"><g transform="translate(1719 206)" fill="#fff" stroke="#fc3a52" stroke-width="0.5"><circle cx="3" cy="3" r="3" stroke="none"/><circle cx="3" cy="3" r="2.75" fill="none"/></g></g><g transform="translate(-1570 195)"><g transform="translate(1719 206)" fill="#fff" stroke="#fc3a52" stroke-width="0.5"><circle cx="3" cy="3" r="3" stroke="none"/><circle cx="3" cy="3" r="2.75" fill="none"/></g></g><g transform="translate(-1534 195)"><g transform="translate(1719 206)" fill="#fff" stroke="#fc3a52" stroke-width="0.5"><circle cx="3" cy="3" r="3" stroke="none"/><circle cx="3" cy="3" r="2.75" fill="none"/></g></g><g transform="translate(-1498 195)"><g transform="translate(1719 206)" fill="#fff" stroke="#fc3a52" stroke-width="0.5"><circle cx="3" cy="3" r="3" stroke="none"/><circle cx="3" cy="3" r="2.75" fill="none"/></g></g><g transform="translate(-1462 195)"><g transform="translate(1719 206)" fill="#fff" stroke="#fc3a52" stroke-width="0.5"><circle cx="3" cy="3" r="3" stroke="none"/><circle cx="3" cy="3" r="2.75" fill="none"/></g></g><g transform="translate(-1426 195)"><g transform="translate(1719 206)" fill="#fff" stroke="#fc3a52" stroke-width="0.5"><circle cx="3" cy="3" r="3" stroke="none"/><circle cx="3" cy="3" r="2.75" fill="none"/></g></g><g transform="translate(-1390 195)"><g transform="translate(1719 206)" fill="#fff" stroke="#fc3a52" stroke-width="0.5"><circle cx="3" cy="3" r="3" stroke="none"/><circle cx="3" cy="3" r="2.75" fill="none"/></g></g><g transform="translate(-1354 195)"><g transform="translate(1719 206)" fill="#fff" stroke="#fc3a52" stroke-width="0.5"><circle cx="3" cy="3" r="3" stroke="none"/><circle cx="3" cy="3" r="2.75" fill="none"/></g></g><g transform="translate(-1714 231)"><g transform="translate(1719 206)" fill="#fff" stroke="#fc3a52" stroke-width="0.5"><circle cx="3" cy="3" r="3" stroke="none"/><circle cx="3" cy="3" r="2.75" fill="none"/></g></g><g transform="translate(-1678 231)"><g transform="translate(1719 206)" fill="#fff" stroke="#fc3a52" stroke-width="0.5"><circle cx="3" cy="3" r="3" stroke="none"/><circle cx="3" cy="3" r="2.75" fill="none"/></g></g><g transform="translate(-1642 231)"><g transform="translate(1719 206)" fill="#fff" stroke="#fc3a52" stroke-width="0.5"><circle cx="3" cy="3" r="3" stroke="none"/><circle cx="3" cy="3" r="2.75" fill="none"/></g></g><g transform="translate(-1606 231)"><g transform="translate(1719 206)" fill="#fff" stroke="#fc3a52" stroke-width="0.5"><circle cx="3" cy="3" r="3" stroke="none"/><circle cx="3" cy="3" r="2.75" fill="none"/></g></g><g transform="translate(-1570 231)"><g transform="translate(1719 206)" fill="#fff" stroke="#fc3a52" stroke-width="0.5"><circle cx="3" cy="3" r="3" stroke="none"/><circle cx="3" cy="3" r="2.75" fill="none"/></g></g><g transform="translate(-1534 231)"><g transform="translate(1719 206)" fill="#fff" stroke="#fc3a52" stroke-width="0.5"><circle cx="3" cy="3" r="3" stroke="none"/><circle cx="3" cy="3" r="2.75" fill="none"/></g></g><g transform="translate(-1498 231)"><g transform="translate(1719 206)" fill="#fff" stroke="#fc3a52" stroke-width="0.5"><circle cx="3" cy="3" r="3" stroke="none"/><circle cx="3" cy="3" r="2.75" fill="none"/></g></g><g transform="translate(-1462 231)"><g transform="translate(1719 206)" fill="#fff" stroke="#fc3a52" stroke-width="0.5"><circle cx="3" cy="3" r="3" stroke="none"/><circle cx="3" cy="3" r="2.75" fill="none"/></g></g><g transform="translate(-1426 231)"><g transform="translate(1719 206)" fill="#fff" stroke="#fc3a52" stroke-width="0.5"><circle cx="3" cy="3" r="3" stroke="none"/><circle cx="3" cy="3" r="2.75" fill="none"/></g></g><g transform="translate(-1390 231)"><g transform="translate(1719 206)" fill="#fff" stroke="#fc3a52" stroke-width="0.5"><circle cx="3" cy="3" r="3" stroke="none"/><circle cx="3" cy="3" r="2.75" fill="none"/></g></g><g transform="translate(-1354 231)"><g transform="translate(1719 206)" fill="#fff" stroke="#fc3a52" stroke-width="0.5"><circle cx="3" cy="3" r="3" stroke="none"/><circle cx="3" cy="3" r="2.75" fill="none"/></g></g></g></svg>